<?xml version="1.0" encoding="UTF-8"?>
<svg id="Layer_2" data-name="Layer 2" xmlns="http://www.w3.org/2000/svg" viewBox="0 0 978.34 306.12">
  <defs>
    <style>
      .cls-1 {
        fill: none;
        stroke: #cf0;
        stroke-width: 3px;
      }

      .cls-2 {
        fill: #cf0;
      }
    </style>
  </defs>
  <g id="Layer_1-2" data-name="Layer 1">
    <g>
      <path class="cls-1" d="M1.5,268.04c0-27,8.71-67.07,18.73-114.98,12.63-60.54,20.9-101.04,33.97-123.69C65.08,10.21,86.86,1.5,109.07,1.5c23.95,0,44.86,11.32,44.86,38.33,0,19.16-5.66,49.65-13.06,87.1h-49.65c3.48-18.29,15.68-74.47,15.68-79.26,0-3.92-3.05-4.79-5.23-4.79-3.48,0-7.4.87-9.58,9.58-3.48,12.63-14.37,63.15-22.21,100.6-12.19,56.62-21.78,99.73-21.78,105.39,0,3.05,1.74,4.79,6.53,4.79,4.35,0,7.84-2.61,9.15-8.27l13.07-61.84h-7.84l9.15-41.81h57.49l-31.79,149.82h-25.26l-1.74-20.9h-1.31c-7.84,16.99-17.86,24.39-39.63,24.39S1.5,290.25,1.5,268.04Z"/>
      <path class="cls-1" d="M130.41,264.55c0-23.52,8.28-62.71,18.73-111.49,11.76-55.75,20.91-101.48,33.97-124.12,10.89-18.29,31.79-27.44,54-27.44,24.83,0,46.17,11.32,46.17,37.45,0,24.39-9.15,66.2-19.16,114.11-12.63,57.92-21.78,104.52-34.41,124.56-11.76,18.29-30.05,27-52.7,27-26.57,0-46.6-13.07-46.6-40.07ZM177.44,258.45c0,2.61,1.31,4.79,5.66,4.79,3.48,0,6.97-1.74,9.15-10.45,4.36-16.99,12.19-51.83,22.21-99.73,10.45-48.78,21.34-101.48,21.34-105.83,0-3.48-2.61-4.35-5.23-4.35-3.48,0-7.4,1.31-9.58,9.58-3.92,13.5-12.2,53.57-22.21,100.6-10.89,50.96-21.34,99.3-21.34,105.39Z"/>
      <path class="cls-2" d="M303.3,4.98h48.78l-10.45,85.8c-3.92,30.05-23.08,127.61-23.08,127.61h3.05s22.65-97.56,33.53-127.61l29.62-85.8h38.33l-5.66,85.8c-2.18,30.05-19.16,127.61-19.16,127.61h3.05s19.16-97.56,28.31-127.61l26.13-85.8h51.39l-94.07,296.15h-52.26l3.48-51.39c2.18-30.49,13.94-113.67,13.94-113.67h-1.74s-23.08,83.18-33.53,113.67l-17.86,51.39h-53.13L303.3,4.98Z"/>
      <path class="cls-2" d="M525.41,256.71h-22.65l-12.19,44.42h-50.96L538.04,4.98h55.75l-25.26,296.15h-49.21l6.1-44.42ZM513.65,218.39h16.98l3.05-21.78c4.36-31.36,15.68-104.09,15.68-104.09h-2.61s-18.29,72.73-27,104.09l-6.1,21.78Z"/>
      <path class="cls-2" d="M643.43,4.98h49.65l-54,254.78h34.84l-8.71,41.37h-84.49L643.43,4.98Z"/>
      <path class="cls-2" d="M742.29,4.98h49.65l-27.87,131.53h3.48L807.62,4.98h50.08l-53.57,159.4-6.53,136.75h-49.65l10.45-130.65h-1.74l-27.44,130.65h-49.65L742.29,4.98Z"/>
      <path class="cls-2" d="M874.68,4.98h59.23c30.92,0,44.42,12.2,44.42,37.46,0,14.81-4.36,35.71-7.4,50.08-5.23,24.39-9.15,42.68-22.65,55.31-3.92,3.48-9.58,6.1-14.81,7.84v.44c10.45,4.79,15.68,13.07,15.68,26.13,0,8.71-1.31,19.6-3.92,32.23l-18.29,86.67h-49.65l19.16-91.89c1.74-8.28,3.92-18.73,3.92-23.08,0-3.48-1.74-5.66-7.4-5.66h-6.1l-25.26,120.64h-49.65L874.68,4.98ZM899.07,142.17c5.23,0,9.58-1.31,12.19-7.84,2.61-6.97,7.4-29.18,10.02-41.81,2.61-12.19,7.4-36.15,7.4-40.94,0-3.05-1.31-5.23-6.53-5.23h-6.53l-20.47,95.81h3.92Z"/>
    </g>
  </g>
</svg>